<mxfile host="app.diagrams.net" agent="Mozilla/5.0 (Windows NT 10.0; Win64; x64) AppleWebKit/537.36 (KHTML, like Gecko) Chrome/137.0.0.0 Safari/537.36" version="27.1.4">
  <diagram name="Page-1" id="V0Kdx8P3CYI74NcUjWSN">
    <mxGraphModel dx="1914" dy="2328" grid="0" gridSize="7" guides="1" tooltips="1" connect="1" arrows="1" fold="1" page="0" pageScale="1" pageWidth="583" pageHeight="827" background="none" math="0" shadow="0">
      <root>
        <mxCell id="0" />
        <mxCell id="1" parent="0" />
        <mxCell id="PD81UUhHNW6ZAo99IDhD-35" value="&lt;b&gt;&amp;lt;&amp;lt;abstract&amp;gt;&amp;gt; Vehicul&lt;/b&gt;" style="swimlane;fontStyle=0;childLayout=stackLayout;horizontal=1;startSize=26;fillColor=#f0a30a;horizontalStack=0;resizeParent=1;resizeParentMax=0;resizeLast=0;collapsible=1;marginBottom=0;whiteSpace=wrap;html=1;strokeColor=#BD7000;fontColor=#000000;" parent="1" vertex="1">
          <mxGeometry x="669" y="-928.5" width="259" height="182" as="geometry">
            <mxRectangle x="259" y="21" width="98" height="35" as="alternateBounds" />
          </mxGeometry>
        </mxCell>
        <mxCell id="PD81UUhHNW6ZAo99IDhD-36" value="# marca: String&amp;nbsp; &amp;nbsp; &amp;nbsp; &amp;nbsp;&lt;br&gt;# model: String&amp;nbsp; &amp;nbsp; &amp;nbsp;&amp;nbsp;&lt;br&gt;# anFabricatie: Int&amp;nbsp;&amp;nbsp;&amp;nbsp; &amp;nbsp; &amp;nbsp;&amp;nbsp;&lt;br&gt;# dotari: List&amp;lt;String&amp;gt;&lt;div&gt;# pretInitial: Double&lt;/div&gt;" style="text;strokeColor=none;fillColor=none;align=left;verticalAlign=top;spacingLeft=4;spacingRight=4;overflow=hidden;rotatable=0;points=[[0,0.5],[1,0.5]];portConstraint=eastwest;whiteSpace=wrap;html=1;" parent="PD81UUhHNW6ZAo99IDhD-35" vertex="1">
          <mxGeometry y="26" width="259" height="100" as="geometry" />
        </mxCell>
        <mxCell id="PD81UUhHNW6ZAo99IDhD-135" value="" style="line;strokeWidth=1;fillColor=none;align=left;verticalAlign=middle;spacingTop=-1;spacingLeft=3;spacingRight=3;rotatable=0;labelPosition=right;points=[];portConstraint=eastwest;strokeColor=inherit;" parent="PD81UUhHNW6ZAo99IDhD-35" vertex="1">
          <mxGeometry y="126" width="259" height="8" as="geometry" />
        </mxCell>
        <mxCell id="PD81UUhHNW6ZAo99IDhD-37" value="&lt;i&gt;+ calculeazaRisc(): Risc&lt;/i&gt;&lt;div&gt;&lt;i&gt;+ calculeazaVarsta(): Int&lt;/i&gt;&lt;/div&gt;" style="text;strokeColor=none;fillColor=none;align=left;verticalAlign=top;spacingLeft=4;spacingRight=4;overflow=hidden;rotatable=0;points=[[0,0.5],[1,0.5]];portConstraint=eastwest;whiteSpace=wrap;html=1;" parent="PD81UUhHNW6ZAo99IDhD-35" vertex="1">
          <mxGeometry y="134" width="259" height="48" as="geometry" />
        </mxCell>
        <mxCell id="PD81UUhHNW6ZAo99IDhD-39" value="Client" style="swimlane;fontStyle=0;childLayout=stackLayout;horizontal=1;startSize=26;fillColor=light-dark(#244be5, #103c3f);horizontalStack=0;resizeParent=1;resizeParentMax=0;resizeLast=0;collapsible=1;marginBottom=0;whiteSpace=wrap;html=1;strokeColor=#0e8088;" parent="1" vertex="1">
          <mxGeometry x="196" y="-903" width="210" height="161" as="geometry" />
        </mxCell>
        <mxCell id="PD81UUhHNW6ZAo99IDhD-40" value="&lt;div style=&quot;forced-color-adjust: none; color: rgb(0, 0, 0); font-family: Helvetica; font-size: 12px; font-style: normal; font-variant-ligatures: normal; font-variant-caps: normal; font-weight: 400; letter-spacing: normal; orphans: 2; text-align: left; text-indent: 0px; text-transform: none; widows: 2; word-spacing: 0px; -webkit-text-stroke-width: 0px; white-space: normal; text-decoration-thickness: initial; text-decoration-style: initial; text-decoration-color: initial;&quot;&gt;&lt;span style=&quot;background-color: light-dark(#ffffff, var(--ge-dark-color, #121212));&quot;&gt;- accidente: List&amp;lt;Accident&amp;gt;&lt;/span&gt;&lt;/div&gt;&lt;div style=&quot;forced-color-adjust: none; color: rgb(0, 0, 0); font-family: Helvetica; font-size: 12px; font-style: normal; font-variant-ligatures: normal; font-variant-caps: normal; font-weight: 400; letter-spacing: normal; orphans: 2; text-align: left; text-indent: 0px; text-transform: none; widows: 2; word-spacing: 0px; -webkit-text-stroke-width: 0px; white-space: normal; text-decoration-thickness: initial; text-decoration-style: initial; text-decoration-color: initial;&quot;&gt;&lt;span style=&quot;background-color: light-dark(#ffffff, var(--ge-dark-color, #121212));&quot;&gt;- vehicule: List&amp;lt;Vehicul&amp;gt;&lt;/span&gt;&lt;/div&gt;&lt;div style=&quot;forced-color-adjust: none; color: rgb(0, 0, 0); font-family: Helvetica; font-size: 12px; font-style: normal; font-variant-ligatures: normal; font-variant-caps: normal; font-weight: 400; letter-spacing: normal; orphans: 2; text-align: left; text-indent: 0px; text-transform: none; widows: 2; word-spacing: 0px; -webkit-text-stroke-width: 0px; white-space: normal; text-decoration-thickness: initial; text-decoration-style: initial; text-decoration-color: initial;&quot;&gt;&lt;span style=&quot;background-color: light-dark(#ffffff, var(--ge-dark-color, #121212));&quot;&gt;- contracte: List&amp;lt;ContractAsigurare&amp;gt;&lt;/span&gt;&lt;/div&gt;" style="text;strokeColor=none;fillColor=none;align=left;verticalAlign=top;spacingLeft=4;spacingRight=4;overflow=hidden;rotatable=0;points=[[0,0.5],[1,0.5]];portConstraint=eastwest;whiteSpace=wrap;html=1;" parent="PD81UUhHNW6ZAo99IDhD-39" vertex="1">
          <mxGeometry y="26" width="210" height="58" as="geometry" />
        </mxCell>
        <mxCell id="PD81UUhHNW6ZAo99IDhD-136" value="" style="line;strokeWidth=1;fillColor=none;align=left;verticalAlign=middle;spacingTop=-1;spacingLeft=3;spacingRight=3;rotatable=0;labelPosition=right;points=[];portConstraint=eastwest;strokeColor=inherit;" parent="PD81UUhHNW6ZAo99IDhD-39" vertex="1">
          <mxGeometry y="84" width="210" height="8" as="geometry" />
        </mxCell>
        <mxCell id="PD81UUhHNW6ZAo99IDhD-41" value="&lt;div&gt;&lt;span style=&quot;color: rgb(0, 0, 0); font-family: Helvetica; font-size: 12px; font-style: normal; font-variant-ligatures: normal; font-variant-caps: normal; font-weight: 400; letter-spacing: normal; orphans: 2; text-align: left; text-indent: 0px; text-transform: none; widows: 2; word-spacing: 0px; -webkit-text-stroke-width: 0px; white-space: normal; text-decoration-thickness: initial; text-decoration-style: initial; text-decoration-color: initial; float: none; background-color: light-dark(#ffffff, var(--ge-dark-color, #121212)); display: inline !important;&quot;&gt;+ adaugaAccident(a: Accident): void&lt;/span&gt;&lt;/div&gt;&lt;div&gt;&lt;span style=&quot;color: rgb(0, 0, 0); font-family: Helvetica; font-size: 12px; font-style: normal; font-variant-ligatures: normal; font-variant-caps: normal; font-weight: 400; letter-spacing: normal; orphans: 2; text-align: left; text-indent: 0px; text-transform: none; widows: 2; word-spacing: 0px; -webkit-text-stroke-width: 0px; white-space: normal; text-decoration-thickness: initial; text-decoration-style: initial; text-decoration-color: initial; float: none; background-color: light-dark(#ffffff, var(--ge-dark-color, #121212)); display: inline !important;&quot;&gt;+ getNrAccidenteUltimii5Ani():Int&lt;/span&gt;&lt;/div&gt;" style="text;strokeColor=none;fillColor=none;align=left;verticalAlign=top;spacingLeft=4;spacingRight=4;overflow=hidden;rotatable=0;points=[[0,0.5],[1,0.5]];portConstraint=eastwest;whiteSpace=wrap;html=1;" parent="PD81UUhHNW6ZAo99IDhD-39" vertex="1">
          <mxGeometry y="92" width="210" height="69" as="geometry" />
        </mxCell>
        <mxCell id="PD81UUhHNW6ZAo99IDhD-48" value="&lt;b&gt;ContractAsigurare&amp;nbsp;&lt;/b&gt;" style="swimlane;fontStyle=0;childLayout=stackLayout;horizontal=1;startSize=26;fillColor=#f8cecc;horizontalStack=0;resizeParent=1;resizeParentMax=0;resizeLast=0;collapsible=1;marginBottom=0;whiteSpace=wrap;html=1;strokeColor=#b85450;" parent="1" vertex="1">
          <mxGeometry x="146" y="-538" width="273" height="231" as="geometry" />
        </mxCell>
        <mxCell id="PD81UUhHNW6ZAo99IDhD-49" value="&lt;div&gt;- numarUnic: String&amp;nbsp; &amp;nbsp; &amp;nbsp; &amp;nbsp; &amp;nbsp;&lt;/div&gt;&lt;div&gt;- client: Client&amp;nbsp; &amp;nbsp; &amp;nbsp; &amp;nbsp; &amp;nbsp;&lt;/div&gt;&lt;div&gt;- masina: Masina&amp;nbsp; &amp;nbsp; &amp;nbsp; &amp;nbsp; &amp;nbsp;&lt;/div&gt;&lt;div&gt;&lt;span style=&quot;background-color: transparent; color: light-dark(rgb(0, 0, 0), rgb(255, 255, 255));&quot;&gt;- riscuri: List&amp;lt;Risc&amp;gt;&lt;/span&gt;&lt;/div&gt;&lt;div&gt;&lt;span style=&quot;background-color: transparent; color: light-dark(rgb(0, 0, 0), rgb(255, 255, 255));&quot;&gt;- status: String&amp;nbsp; &amp;nbsp;&amp;nbsp;&lt;/span&gt;&lt;/div&gt;&lt;div&gt;- sumaAsigurata: Double&lt;/div&gt;&lt;div&gt;- frecventaPlata:&amp;nbsp;&lt;span style=&quot;background-color: transparent; color: light-dark(rgb(0, 0, 0), rgb(255, 255, 255));&quot;&gt;FrecventaPlata&lt;/span&gt;&lt;/div&gt;&lt;div&gt;&lt;span style=&quot;background-color: transparent; color: light-dark(rgb(0, 0, 0), rgb(255, 255, 255));&quot;&gt;- rataFinala: Double&lt;/span&gt;&lt;/div&gt;&lt;div&gt;&lt;span style=&quot;background-color: transparent; color: light-dark(rgb(0, 0, 0), rgb(255, 255, 255));&quot;&gt;- plataEfectuala: Plata&lt;/span&gt;&lt;/div&gt;" style="text;strokeColor=none;fillColor=none;align=left;verticalAlign=top;spacingLeft=4;spacingRight=4;overflow=hidden;rotatable=0;points=[[0,0.5],[1,0.5]];portConstraint=eastwest;whiteSpace=wrap;html=1;" parent="PD81UUhHNW6ZAo99IDhD-48" vertex="1">
          <mxGeometry y="26" width="273" height="142" as="geometry" />
        </mxCell>
        <mxCell id="S4Hd87Xg5I5Yjy9WUyBA-20" value="" style="line;strokeWidth=1;fillColor=none;align=left;verticalAlign=middle;spacingTop=-1;spacingLeft=3;spacingRight=3;rotatable=0;labelPosition=right;points=[];portConstraint=eastwest;strokeColor=inherit;" parent="PD81UUhHNW6ZAo99IDhD-48" vertex="1">
          <mxGeometry y="168" width="273" height="8" as="geometry" />
        </mxCell>
        <mxCell id="PD81UUhHNW6ZAo99IDhD-50" value="&lt;div&gt;+ calculeazaSumaAsigurata(&lt;span style=&quot;color: light-dark(rgb(0, 0, 0), rgb(255, 255, 255)); background-color: transparent;&quot;&gt;): Double&amp;nbsp;&amp;nbsp;&lt;/span&gt;&lt;span style=&quot;background-color: transparent; color: light-dark(rgb(0, 0, 0), rgb(255, 255, 255));&quot;&gt;&lt;/span&gt;&lt;/div&gt;&lt;div&gt;&lt;span style=&quot;background-color: transparent; color: light-dark(rgb(0, 0, 0), rgb(255, 255, 255));&quot;&gt;+ calculeazaRata(): Double&lt;/span&gt;&lt;/div&gt;&lt;div&gt;+ getReducere(): Double&lt;span style=&quot;background-color: transparent; color: light-dark(rgb(0, 0, 0), rgb(255, 255, 255));&quot;&gt;&lt;/span&gt;&lt;/div&gt;" style="text;strokeColor=none;fillColor=none;align=left;verticalAlign=top;spacingLeft=4;spacingRight=4;overflow=hidden;rotatable=0;points=[[0,0.5],[1,0.5]];portConstraint=eastwest;whiteSpace=wrap;html=1;" parent="PD81UUhHNW6ZAo99IDhD-48" vertex="1">
          <mxGeometry y="176" width="273" height="55" as="geometry" />
        </mxCell>
        <mxCell id="PD81UUhHNW6ZAo99IDhD-52" value="Risc&amp;nbsp;&amp;nbsp;" style="swimlane;fontStyle=1;align=center;verticalAlign=top;childLayout=stackLayout;horizontal=1;startSize=26;horizontalStack=0;resizeParent=1;resizeParentMax=0;resizeLast=0;collapsible=1;marginBottom=0;whiteSpace=wrap;html=1;fillColor=#a20025;strokeColor=#6F0000;fontColor=#ffffff;" parent="1" vertex="1">
          <mxGeometry x="559" y="-384" width="160" height="77" as="geometry" />
        </mxCell>
        <mxCell id="PD81UUhHNW6ZAo99IDhD-53" value="&lt;div&gt;- tip: TipRisc&lt;/div&gt;&lt;div&gt;- coeficient: Double&lt;/div&gt;" style="text;strokeColor=none;fillColor=none;align=left;verticalAlign=top;spacingLeft=4;spacingRight=4;overflow=hidden;rotatable=0;points=[[0,0.5],[1,0.5]];portConstraint=eastwest;whiteSpace=wrap;html=1;" parent="PD81UUhHNW6ZAo99IDhD-52" vertex="1">
          <mxGeometry y="26" width="160" height="51" as="geometry" />
        </mxCell>
        <mxCell id="PD81UUhHNW6ZAo99IDhD-56" value="&lt;b&gt;Plata&amp;nbsp;&amp;nbsp;&lt;/b&gt;" style="swimlane;fontStyle=0;childLayout=stackLayout;horizontal=1;startSize=26;fillColor=#a20025;horizontalStack=0;resizeParent=1;resizeParentMax=0;resizeLast=0;collapsible=1;marginBottom=0;whiteSpace=wrap;html=1;fontColor=#ffffff;strokeColor=#6F0000;" parent="1" vertex="1">
          <mxGeometry x="557" y="-555" width="168" height="118" as="geometry" />
        </mxCell>
        <mxCell id="PD81UUhHNW6ZAo99IDhD-57" value="&lt;div&gt;- numarPlata:int&lt;/div&gt;- data: Date&lt;div&gt;- sumaPlatita: Double&lt;/div&gt;" style="text;strokeColor=none;fillColor=none;align=left;verticalAlign=top;spacingLeft=4;spacingRight=4;overflow=hidden;rotatable=0;points=[[0,0.5],[1,0.5]];portConstraint=eastwest;whiteSpace=wrap;html=1;" parent="PD81UUhHNW6ZAo99IDhD-56" vertex="1">
          <mxGeometry y="26" width="168" height="59" as="geometry" />
        </mxCell>
        <mxCell id="S4Hd87Xg5I5Yjy9WUyBA-42" value="" style="line;strokeWidth=1;fillColor=none;align=left;verticalAlign=middle;spacingTop=-1;spacingLeft=3;spacingRight=3;rotatable=0;labelPosition=right;points=[];portConstraint=eastwest;strokeColor=inherit;" parent="PD81UUhHNW6ZAo99IDhD-56" vertex="1">
          <mxGeometry y="85" width="168" height="7" as="geometry" />
        </mxCell>
        <mxCell id="S4Hd87Xg5I5Yjy9WUyBA-43" value="+ salveaza(): void" style="text;strokeColor=none;fillColor=none;align=left;verticalAlign=top;spacingLeft=4;spacingRight=4;overflow=hidden;rotatable=0;points=[[0,0.5],[1,0.5]];portConstraint=eastwest;whiteSpace=wrap;html=1;" parent="PD81UUhHNW6ZAo99IDhD-56" vertex="1">
          <mxGeometry y="92" width="168" height="26" as="geometry" />
        </mxCell>
        <mxCell id="PD81UUhHNW6ZAo99IDhD-60" value="Angajat&amp;nbsp;&amp;nbsp;" style="swimlane;fontStyle=0;childLayout=stackLayout;horizontal=1;startSize=28;fillColor=#647687;horizontalStack=0;resizeParent=1;resizeParentMax=0;resizeLast=0;collapsible=1;marginBottom=0;whiteSpace=wrap;html=1;fontColor=#ffffff;strokeColor=#314354;" parent="1" vertex="1">
          <mxGeometry x="-284" y="-910" width="336" height="126" as="geometry" />
        </mxCell>
        <mxCell id="PD81UUhHNW6ZAo99IDhD-63" value="&lt;div&gt;+ creeazaContract(): ContractAsigurare&amp;nbsp;&lt;/div&gt;&lt;div&gt;&lt;span style=&quot;background-color: transparent; color: light-dark(rgb(0, 0, 0), rgb(255, 255, 255));&quot;&gt;+ anuleazaContract(c:&amp;nbsp;&lt;/span&gt;&lt;span style=&quot;background-color: transparent; color: light-dark(rgb(0, 0, 0), rgb(255, 255, 255));&quot;&gt;ContractAsigurare&lt;/span&gt;&lt;span style=&quot;background-color: transparent; color: light-dark(rgb(0, 0, 0), rgb(255, 255, 255));&quot;&gt;): void&lt;/span&gt;&lt;/div&gt;&lt;div&gt;&lt;span style=&quot;background-color: transparent; color: light-dark(rgb(0, 0, 0), rgb(255, 255, 255));&quot;&gt;+ reinoireContract(c: ContractAsigurare): ContractAsigurare&lt;/span&gt;&lt;/div&gt;&lt;div&gt;&lt;span style=&quot;background-color: transparent; color: light-dark(rgb(0, 0, 0), rgb(255, 255, 255));&quot;&gt;+ creeazaPlata(&lt;/span&gt;&lt;span style=&quot;background-color: transparent; color: light-dark(rgb(0, 0, 0), rgb(255, 255, 255));&quot;&gt;):Plata&lt;/span&gt;&lt;/div&gt;&lt;div&gt;&lt;span style=&quot;background-color: transparent; color: light-dark(rgb(0, 0, 0), rgb(255, 255, 255));&quot;&gt;+ cautareContract(nr: String): ContractAsigurare&lt;/span&gt;&lt;/div&gt;" style="text;strokeColor=none;fillColor=none;align=left;verticalAlign=top;spacingLeft=4;spacingRight=4;overflow=hidden;rotatable=0;points=[[0,0.5],[1,0.5]];portConstraint=eastwest;whiteSpace=wrap;html=1;" parent="PD81UUhHNW6ZAo99IDhD-60" vertex="1">
          <mxGeometry y="28" width="336" height="98" as="geometry" />
        </mxCell>
        <mxCell id="PD81UUhHNW6ZAo99IDhD-72" value="&lt;b&gt;&amp;lt;&amp;lt;Enum&amp;gt;&amp;gt; FrecventaPlata&amp;nbsp;&lt;/b&gt;" style="swimlane;fontStyle=0;childLayout=stackLayout;horizontal=1;startSize=26;fillColor=#fa6800;horizontalStack=0;resizeParent=1;resizeParentMax=0;resizeLast=0;collapsible=1;marginBottom=0;whiteSpace=wrap;html=1;fontColor=#000000;strokeColor=#C73500;" parent="1" vertex="1">
          <mxGeometry x="153" y="-252" width="161" height="84" as="geometry" />
        </mxCell>
        <mxCell id="PD81UUhHNW6ZAo99IDhD-73" value="&lt;div&gt;LUNAR&lt;/div&gt;&lt;div&gt;SEMESTRIAL&lt;/div&gt;&lt;div&gt;ANUAL&lt;/div&gt;" style="text;strokeColor=none;fillColor=none;align=left;verticalAlign=top;spacingLeft=4;spacingRight=4;overflow=hidden;rotatable=0;points=[[0,0.5],[1,0.5]];portConstraint=eastwest;whiteSpace=wrap;html=1;" parent="PD81UUhHNW6ZAo99IDhD-72" vertex="1">
          <mxGeometry y="26" width="161" height="58" as="geometry" />
        </mxCell>
        <mxCell id="PD81UUhHNW6ZAo99IDhD-120" value="Masina" style="swimlane;fontStyle=1;align=center;verticalAlign=top;childLayout=stackLayout;horizontal=1;startSize=26;horizontalStack=0;resizeParent=1;resizeParentMax=0;resizeLast=0;collapsible=1;marginBottom=0;whiteSpace=wrap;html=1;fillColor=#b1ddf0;strokeColor=#10739e;" parent="1" vertex="1">
          <mxGeometry x="942" y="-1136.5" width="146" height="34" as="geometry" />
        </mxCell>
        <mxCell id="PD81UUhHNW6ZAo99IDhD-122" value="" style="line;strokeWidth=1;fillColor=none;align=left;verticalAlign=middle;spacingTop=-1;spacingLeft=3;spacingRight=3;rotatable=0;labelPosition=right;points=[];portConstraint=eastwest;strokeColor=inherit;" parent="PD81UUhHNW6ZAo99IDhD-120" vertex="1">
          <mxGeometry y="26" width="146" height="8" as="geometry" />
        </mxCell>
        <mxCell id="PD81UUhHNW6ZAo99IDhD-146" value="Extends" style="endArrow=block;endSize=16;endFill=0;html=1;rounded=0;entryX=0.5;entryY=0;entryDx=0;entryDy=0;exitX=0.5;exitY=1;exitDx=0;exitDy=0;" parent="1" source="PD81UUhHNW6ZAo99IDhD-120" target="PD81UUhHNW6ZAo99IDhD-35" edge="1">
          <mxGeometry width="160" relative="1" as="geometry">
            <mxPoint x="788" y="-1180.5" as="sourcePoint" />
            <mxPoint x="948" y="-1180.5" as="targetPoint" />
          </mxGeometry>
        </mxCell>
        <mxCell id="PD81UUhHNW6ZAo99IDhD-148" value="1" style="endArrow=open;html=1;endSize=12;startArrow=diamondThin;startSize=14;startFill=1;edgeStyle=orthogonalEdgeStyle;align=left;verticalAlign=bottom;rounded=0;exitX=0.5;exitY=0;exitDx=0;exitDy=0;" parent="1" source="PD81UUhHNW6ZAo99IDhD-120" edge="1">
          <mxGeometry x="-1" y="3" relative="1" as="geometry">
            <mxPoint x="928" y="-1201.5" as="sourcePoint" />
            <mxPoint x="921" y="-1306.5" as="targetPoint" />
            <Array as="points">
              <mxPoint x="1015" y="-1201.5" />
              <mxPoint x="921" y="-1201.5" />
              <mxPoint x="921" y="-1306.5" />
            </Array>
          </mxGeometry>
        </mxCell>
        <mxCell id="PD81UUhHNW6ZAo99IDhD-153" value="Extends" style="endArrow=block;endSize=16;endFill=0;html=1;rounded=0;exitX=0.47;exitY=1.063;exitDx=0;exitDy=0;exitPerimeter=0;" parent="1" source="S4Hd87Xg5I5Yjy9WUyBA-6" target="PD81UUhHNW6ZAo99IDhD-35" edge="1">
          <mxGeometry width="160" relative="1" as="geometry">
            <mxPoint x="802.1750000000002" y="-1087.62" as="sourcePoint" />
            <mxPoint x="711" y="-994.5" as="targetPoint" />
          </mxGeometry>
        </mxCell>
        <mxCell id="PD81UUhHNW6ZAo99IDhD-157" value="Trasura" style="swimlane;fontStyle=1;align=center;verticalAlign=top;childLayout=stackLayout;horizontal=1;startSize=26;horizontalStack=0;resizeParent=1;resizeParentMax=0;resizeLast=0;collapsible=1;marginBottom=0;whiteSpace=wrap;html=1;fillColor=#b1ddf0;strokeColor=#10739e;" parent="1" vertex="1">
          <mxGeometry x="525" y="-1136.5" width="160" height="34" as="geometry" />
        </mxCell>
        <mxCell id="PD81UUhHNW6ZAo99IDhD-159" value="" style="line;strokeWidth=1;fillColor=none;align=left;verticalAlign=middle;spacingTop=-1;spacingLeft=3;spacingRight=3;rotatable=0;labelPosition=right;points=[];portConstraint=eastwest;strokeColor=inherit;" parent="PD81UUhHNW6ZAo99IDhD-157" vertex="1">
          <mxGeometry y="26" width="160" height="8" as="geometry" />
        </mxCell>
        <mxCell id="PD81UUhHNW6ZAo99IDhD-161" value="Extends" style="endArrow=block;endSize=16;endFill=0;html=1;rounded=0;exitX=0.5;exitY=1;exitDx=0;exitDy=0;entryX=0.5;entryY=0;entryDx=0;entryDy=0;" parent="1" source="PD81UUhHNW6ZAo99IDhD-157" target="PD81UUhHNW6ZAo99IDhD-35" edge="1">
          <mxGeometry width="160" relative="1" as="geometry">
            <mxPoint x="718" y="-1327.5" as="sourcePoint" />
            <mxPoint x="739" y="-991.5" as="targetPoint" />
          </mxGeometry>
        </mxCell>
        <mxCell id="PD81UUhHNW6ZAo99IDhD-162" value="Accident" style="swimlane;fontStyle=0;childLayout=stackLayout;horizontal=1;startSize=26;fillColor=#f5f5f5;horizontalStack=0;resizeParent=1;resizeParentMax=0;resizeLast=0;collapsible=1;marginBottom=0;whiteSpace=wrap;html=1;strokeColor=#666666;gradientColor=#b3b3b3;" parent="1" vertex="1">
          <mxGeometry x="469" y="-728" width="140" height="77" as="geometry" />
        </mxCell>
        <mxCell id="PD81UUhHNW6ZAo99IDhD-163" value="- dataAccident: Date&lt;div&gt;- pagube: Double&lt;/div&gt;" style="text;strokeColor=none;fillColor=none;align=left;verticalAlign=top;spacingLeft=4;spacingRight=4;overflow=hidden;rotatable=0;points=[[0,0.5],[1,0.5]];portConstraint=eastwest;whiteSpace=wrap;html=1;" parent="PD81UUhHNW6ZAo99IDhD-162" vertex="1">
          <mxGeometry y="26" width="140" height="51" as="geometry" />
        </mxCell>
        <mxCell id="PD81UUhHNW6ZAo99IDhD-166" value="0..*" style="endArrow=open;html=1;endSize=12;startArrow=diamondThin;startSize=14;startFill=0;edgeStyle=orthogonalEdgeStyle;align=left;verticalAlign=bottom;rounded=0;exitX=0.233;exitY=1;exitDx=0;exitDy=0;exitPerimeter=0;entryX=0;entryY=0.5;entryDx=0;entryDy=0;" parent="1" target="PD81UUhHNW6ZAo99IDhD-163" edge="1">
          <mxGeometry x="-1" y="3" relative="1" as="geometry">
            <mxPoint x="378.00000000000006" y="-742" as="sourcePoint" />
            <mxPoint x="463" y="-676.9714285714285" as="targetPoint" />
            <mxPoint as="offset" />
            <Array as="points">
              <mxPoint x="378" y="-677" />
            </Array>
          </mxGeometry>
        </mxCell>
        <mxCell id="PD81UUhHNW6ZAo99IDhD-167" value="&lt;b&gt;Imprimanta&lt;/b&gt;" style="swimlane;fontStyle=0;childLayout=stackLayout;horizontal=1;startSize=26;fillColor=#e6d0de;horizontalStack=0;resizeParent=1;resizeParentMax=0;resizeLast=0;collapsible=1;marginBottom=0;whiteSpace=wrap;html=1;gradientColor=#d5739d;strokeColor=#996185;" parent="1" vertex="1">
          <mxGeometry x="-176" y="-448.5" width="231" height="52" as="geometry" />
        </mxCell>
        <mxCell id="PD81UUhHNW6ZAo99IDhD-168" value="+ printeaza(c: ContractAsigurare): void" style="text;strokeColor=none;fillColor=none;align=left;verticalAlign=top;spacingLeft=4;spacingRight=4;overflow=hidden;rotatable=0;points=[[0,0.5],[1,0.5]];portConstraint=eastwest;whiteSpace=wrap;html=1;" parent="PD81UUhHNW6ZAo99IDhD-167" vertex="1">
          <mxGeometry y="26" width="231" height="26" as="geometry" />
        </mxCell>
        <mxCell id="PD81UUhHNW6ZAo99IDhD-156" value="1" style="endArrow=open;html=1;endSize=12;startArrow=diamondThin;startSize=14;startFill=1;edgeStyle=orthogonalEdgeStyle;align=left;verticalAlign=bottom;rounded=0;exitX=0.5;exitY=0;exitDx=0;exitDy=0;" parent="1" edge="1">
          <mxGeometry x="-1" y="3" relative="1" as="geometry">
            <mxPoint x="812.5" y="-1136.5" as="sourcePoint" />
            <mxPoint x="921" y="-1306.5" as="targetPoint" />
            <Array as="points">
              <mxPoint x="813" y="-1201.5" />
              <mxPoint x="921" y="-1201.5" />
              <mxPoint x="921" y="-1306.5" />
            </Array>
          </mxGeometry>
        </mxCell>
        <mxCell id="S4Hd87Xg5I5Yjy9WUyBA-1" value="&lt;span style=&quot;text-align: left;&quot;&gt;Motor&amp;nbsp; &amp;nbsp;&lt;/span&gt;" style="swimlane;fontStyle=0;childLayout=stackLayout;horizontal=1;startSize=26;fillColor=#647687;horizontalStack=0;resizeParent=1;resizeParentMax=0;resizeLast=0;collapsible=1;marginBottom=0;whiteSpace=wrap;html=1;strokeColor=#314354;fontColor=#ffffff;" parent="1" vertex="1">
          <mxGeometry x="837" y="-1428" width="168" height="121" as="geometry">
            <mxRectangle x="259" y="21" width="98" height="35" as="alternateBounds" />
          </mxGeometry>
        </mxCell>
        <mxCell id="S4Hd87Xg5I5Yjy9WUyBA-2" value="- putere: Int&amp;nbsp; &amp;nbsp;&amp;nbsp;&lt;div&gt;- euro: String&lt;/div&gt;&lt;div&gt;- combustibil: TipCombustibil&lt;/div&gt;" style="text;strokeColor=none;fillColor=none;align=left;verticalAlign=top;spacingLeft=4;spacingRight=4;overflow=hidden;rotatable=0;points=[[0,0.5],[1,0.5]];portConstraint=eastwest;whiteSpace=wrap;html=1;" parent="S4Hd87Xg5I5Yjy9WUyBA-1" vertex="1">
          <mxGeometry y="26" width="168" height="58" as="geometry" />
        </mxCell>
        <mxCell id="S4Hd87Xg5I5Yjy9WUyBA-3" value="" style="line;strokeWidth=1;fillColor=none;align=left;verticalAlign=middle;spacingTop=-1;spacingLeft=3;spacingRight=3;rotatable=0;labelPosition=right;points=[];portConstraint=eastwest;strokeColor=inherit;" parent="S4Hd87Xg5I5Yjy9WUyBA-1" vertex="1">
          <mxGeometry y="84" width="168" height="8" as="geometry" />
        </mxCell>
        <mxCell id="S4Hd87Xg5I5Yjy9WUyBA-4" value="+calculeazaPoluare(): Double" style="text;strokeColor=none;fillColor=none;align=left;verticalAlign=top;spacingLeft=4;spacingRight=4;overflow=hidden;rotatable=0;points=[[0,0.5],[1,0.5]];portConstraint=eastwest;whiteSpace=wrap;html=1;" parent="S4Hd87Xg5I5Yjy9WUyBA-1" vertex="1">
          <mxGeometry y="92" width="168" height="29" as="geometry" />
        </mxCell>
        <mxCell id="S4Hd87Xg5I5Yjy9WUyBA-5" value="Motocicleta" style="swimlane;fontStyle=1;align=center;verticalAlign=top;childLayout=stackLayout;horizontal=1;startSize=26;horizontalStack=0;resizeParent=1;resizeParentMax=0;resizeLast=0;collapsible=1;marginBottom=0;whiteSpace=wrap;html=1;fillColor=#b1ddf0;strokeColor=#10739e;" parent="1" vertex="1">
          <mxGeometry x="725" y="-1136.5" width="160" height="34" as="geometry" />
        </mxCell>
        <mxCell id="S4Hd87Xg5I5Yjy9WUyBA-6" value="" style="line;strokeWidth=1;fillColor=none;align=left;verticalAlign=middle;spacingTop=-1;spacingLeft=3;spacingRight=3;rotatable=0;labelPosition=right;points=[];portConstraint=eastwest;strokeColor=inherit;" parent="S4Hd87Xg5I5Yjy9WUyBA-5" vertex="1">
          <mxGeometry y="26" width="160" height="8" as="geometry" />
        </mxCell>
        <mxCell id="S4Hd87Xg5I5Yjy9WUyBA-7" value="Persoana" style="swimlane;fontStyle=1;align=center;verticalAlign=top;childLayout=stackLayout;horizontal=1;startSize=26;horizontalStack=0;resizeParent=1;resizeParentMax=0;resizeLast=0;collapsible=1;marginBottom=0;whiteSpace=wrap;html=1;fillColor=#fad7ac;strokeColor=#b46504;" parent="1" vertex="1">
          <mxGeometry x="224" y="-1141" width="160" height="84" as="geometry" />
        </mxCell>
        <mxCell id="S4Hd87Xg5I5Yjy9WUyBA-8" value="# nume: String&amp;nbsp;&lt;div&gt;# prenume: String&lt;/div&gt;&lt;div&gt;# cnp: String&lt;/div&gt;" style="text;strokeColor=none;fillColor=none;align=left;verticalAlign=top;spacingLeft=4;spacingRight=4;overflow=hidden;rotatable=0;points=[[0,0.5],[1,0.5]];portConstraint=eastwest;whiteSpace=wrap;html=1;" parent="S4Hd87Xg5I5Yjy9WUyBA-7" vertex="1">
          <mxGeometry y="26" width="160" height="58" as="geometry" />
        </mxCell>
        <mxCell id="S4Hd87Xg5I5Yjy9WUyBA-11" value="Utlizator" style="swimlane;fontStyle=1;align=center;verticalAlign=top;childLayout=stackLayout;horizontal=1;startSize=26;horizontalStack=0;resizeParent=1;resizeParentMax=0;resizeLast=0;collapsible=1;marginBottom=0;whiteSpace=wrap;html=1;fillColor=#e51400;strokeColor=#B20000;fontColor=#ffffff;" parent="1" vertex="1">
          <mxGeometry x="-336" y="-700" width="160" height="77" as="geometry" />
        </mxCell>
        <mxCell id="S4Hd87Xg5I5Yjy9WUyBA-12" value="- numeUtilizator: String&lt;div&gt;- parola: String&lt;/div&gt;" style="text;strokeColor=none;fillColor=none;align=left;verticalAlign=top;spacingLeft=4;spacingRight=4;overflow=hidden;rotatable=0;points=[[0,0.5],[1,0.5]];portConstraint=eastwest;whiteSpace=wrap;html=1;" parent="S4Hd87Xg5I5Yjy9WUyBA-11" vertex="1">
          <mxGeometry y="26" width="160" height="51" as="geometry" />
        </mxCell>
        <mxCell id="S4Hd87Xg5I5Yjy9WUyBA-15" value="Extends" style="endArrow=block;endSize=16;endFill=0;html=1;rounded=0;exitX=0.5;exitY=0;exitDx=0;exitDy=0;entryX=0.483;entryY=1.024;entryDx=0;entryDy=0;entryPerimeter=0;" parent="1" source="PD81UUhHNW6ZAo99IDhD-39" target="S4Hd87Xg5I5Yjy9WUyBA-8" edge="1">
          <mxGeometry width="160" relative="1" as="geometry">
            <mxPoint x="217" y="-931" as="sourcePoint" />
            <mxPoint x="297" y="-1050" as="targetPoint" />
          </mxGeometry>
        </mxCell>
        <mxCell id="S4Hd87Xg5I5Yjy9WUyBA-16" value="Extends" style="endArrow=block;endSize=16;endFill=0;html=1;rounded=0;exitX=0.5;exitY=0;exitDx=0;exitDy=0;entryX=0.484;entryY=1.024;entryDx=0;entryDy=0;entryPerimeter=0;" parent="1" source="PD81UUhHNW6ZAo99IDhD-60" target="S4Hd87Xg5I5Yjy9WUyBA-8" edge="1">
          <mxGeometry width="160" relative="1" as="geometry">
            <mxPoint x="63" y="-1008" as="sourcePoint" />
            <mxPoint x="294.0799999999999" y="-1050" as="targetPoint" />
          </mxGeometry>
        </mxCell>
        <mxCell id="S4Hd87Xg5I5Yjy9WUyBA-17" value="Extends" style="endArrow=block;endSize=16;endFill=0;html=1;rounded=0;exitX=0.463;exitY=0.022;exitDx=0;exitDy=0;entryX=0.447;entryY=0.953;entryDx=0;entryDy=0;entryPerimeter=0;exitPerimeter=0;" parent="1" source="S4Hd87Xg5I5Yjy9WUyBA-11" target="PD81UUhHNW6ZAo99IDhD-63" edge="1">
          <mxGeometry width="160" relative="1" as="geometry">
            <mxPoint x="-74" y="-670" as="sourcePoint" />
            <mxPoint x="86" y="-670" as="targetPoint" />
          </mxGeometry>
        </mxCell>
        <mxCell id="S4Hd87Xg5I5Yjy9WUyBA-19" value="" style="endArrow=open;endFill=1;endSize=12;html=1;rounded=0;exitX=1.003;exitY=0.241;exitDx=0;exitDy=0;exitPerimeter=0;entryX=-0.001;entryY=0.625;entryDx=0;entryDy=0;entryPerimeter=0;" parent="1" source="PD81UUhHNW6ZAo99IDhD-168" target="PD81UUhHNW6ZAo99IDhD-49" edge="1">
          <mxGeometry width="160" relative="1" as="geometry">
            <mxPoint x="319" y="-416" as="sourcePoint" />
            <mxPoint x="146" y="-464" as="targetPoint" />
          </mxGeometry>
        </mxCell>
        <mxCell id="S4Hd87Xg5I5Yjy9WUyBA-26" value="1" style="endArrow=open;html=1;endSize=12;startArrow=diamondThin;startSize=14;startFill=1;edgeStyle=orthogonalEdgeStyle;align=left;verticalAlign=bottom;rounded=0;entryX=0.478;entryY=0;entryDx=0;entryDy=0;entryPerimeter=0;" parent="1" target="PD81UUhHNW6ZAo99IDhD-72" edge="1">
          <mxGeometry x="-1" y="3" relative="1" as="geometry">
            <mxPoint x="230" y="-294" as="sourcePoint" />
            <mxPoint x="230" y="-301" as="targetPoint" />
            <Array as="points">
              <mxPoint x="230" y="-308" />
              <mxPoint x="230" y="-308" />
            </Array>
          </mxGeometry>
        </mxCell>
        <mxCell id="S4Hd87Xg5I5Yjy9WUyBA-27" value="&amp;lt;&amp;lt;Enum&amp;gt;&amp;gt; TipRisc&amp;nbsp;&amp;nbsp;" style="swimlane;fontStyle=1;align=center;verticalAlign=top;childLayout=stackLayout;horizontal=1;startSize=26;horizontalStack=0;resizeParent=1;resizeParentMax=0;resizeLast=0;collapsible=1;marginBottom=0;whiteSpace=wrap;html=1;fillColor=#fa6800;strokeColor=#C73500;fontColor=#000000;" parent="1" vertex="1">
          <mxGeometry x="790" y="-391" width="133" height="84" as="geometry" />
        </mxCell>
        <mxCell id="S4Hd87Xg5I5Yjy9WUyBA-28" value="CUTREMUR&lt;div&gt;ACCIDENT&lt;/div&gt;&lt;div&gt;INCENDIU&lt;/div&gt;" style="text;strokeColor=none;fillColor=none;align=left;verticalAlign=top;spacingLeft=4;spacingRight=4;overflow=hidden;rotatable=0;points=[[0,0.5],[1,0.5]];portConstraint=eastwest;whiteSpace=wrap;html=1;" parent="S4Hd87Xg5I5Yjy9WUyBA-27" vertex="1">
          <mxGeometry y="26" width="133" height="58" as="geometry" />
        </mxCell>
        <mxCell id="S4Hd87Xg5I5Yjy9WUyBA-31" value="1" style="endArrow=open;html=1;endSize=12;startArrow=diamondThin;startSize=14;startFill=1;edgeStyle=orthogonalEdgeStyle;align=left;verticalAlign=bottom;rounded=0;entryX=-0.01;entryY=0.328;entryDx=0;entryDy=0;entryPerimeter=0;" parent="1" target="S4Hd87Xg5I5Yjy9WUyBA-28" edge="1">
          <mxGeometry x="-1" y="3" relative="1" as="geometry">
            <mxPoint x="719" y="-346.5999999999999" as="sourcePoint" />
            <mxPoint x="783" y="-346" as="targetPoint" />
          </mxGeometry>
        </mxCell>
        <mxCell id="S4Hd87Xg5I5Yjy9WUyBA-32" value="0..*" style="endArrow=open;html=1;endSize=12;startArrow=diamondThin;startSize=14;startFill=0;edgeStyle=orthogonalEdgeStyle;align=left;verticalAlign=bottom;rounded=0;entryX=-0.003;entryY=0.724;entryDx=0;entryDy=0;entryPerimeter=0;" parent="1" target="PD81UUhHNW6ZAo99IDhD-36" edge="1">
          <mxGeometry x="-1" y="3" relative="1" as="geometry">
            <mxPoint x="406" y="-829.16" as="sourcePoint" />
            <mxPoint x="595" y="-829.91" as="targetPoint" />
            <mxPoint as="offset" />
            <Array as="points">
              <mxPoint x="466" y="-829" />
            </Array>
          </mxGeometry>
        </mxCell>
        <mxCell id="S4Hd87Xg5I5Yjy9WUyBA-33" value="0..*" style="endArrow=open;html=1;endSize=12;startArrow=diamondThin;startSize=14;startFill=0;edgeStyle=orthogonalEdgeStyle;align=left;verticalAlign=bottom;rounded=0;entryX=0.529;entryY=0.012;entryDx=0;entryDy=0;entryPerimeter=0;" parent="1" target="PD81UUhHNW6ZAo99IDhD-48" edge="1">
          <mxGeometry x="-1" y="3" relative="1" as="geometry">
            <mxPoint x="292" y="-742" as="sourcePoint" />
            <mxPoint x="292" y="-602" as="targetPoint" />
            <mxPoint as="offset" />
            <Array as="points">
              <mxPoint x="292" y="-538" />
              <mxPoint x="290" y="-538" />
            </Array>
          </mxGeometry>
        </mxCell>
        <mxCell id="S4Hd87Xg5I5Yjy9WUyBA-35" value="1..*" style="endArrow=open;html=1;endSize=12;startArrow=diamondThin;startSize=14;startFill=1;edgeStyle=orthogonalEdgeStyle;align=left;verticalAlign=bottom;rounded=0;entryX=0;entryY=0.5;entryDx=0;entryDy=0;exitX=1.005;exitY=1.009;exitDx=0;exitDy=0;exitPerimeter=0;" parent="1" source="PD81UUhHNW6ZAo99IDhD-49" target="PD81UUhHNW6ZAo99IDhD-53" edge="1">
          <mxGeometry x="-1" y="3" relative="1" as="geometry">
            <mxPoint x="348" y="-451.06" as="sourcePoint" />
            <mxPoint x="418" y="-450.4600000000001" as="targetPoint" />
            <Array as="points">
              <mxPoint x="422" y="-369" />
              <mxPoint x="498" y="-369" />
              <mxPoint x="498" y="-332" />
            </Array>
            <mxPoint as="offset" />
          </mxGeometry>
        </mxCell>
        <mxCell id="S4Hd87Xg5I5Yjy9WUyBA-36" value="1" style="endArrow=open;html=1;endSize=12;startArrow=diamondThin;startSize=14;startFill=1;edgeStyle=orthogonalEdgeStyle;align=left;verticalAlign=bottom;rounded=0;entryX=-0.006;entryY=0.826;entryDx=0;entryDy=0;entryPerimeter=0;exitX=0.997;exitY=0.572;exitDx=0;exitDy=0;exitPerimeter=0;" parent="1" target="PD81UUhHNW6ZAo99IDhD-57" edge="1">
          <mxGeometry x="-1" y="3" relative="1" as="geometry">
            <mxPoint x="418.18100000000004" y="-480.5760000000001" as="sourcePoint" />
            <mxPoint x="557" y="-553.9779999999998" as="targetPoint" />
            <Array as="points">
              <mxPoint x="421" y="-481" />
              <mxPoint x="556" y="-481" />
            </Array>
          </mxGeometry>
        </mxCell>
        <mxCell id="S4Hd87Xg5I5Yjy9WUyBA-39" value="" style="endArrow=open;endFill=1;endSize=12;html=1;rounded=0;exitX=0.524;exitY=1.065;exitDx=0;exitDy=0;exitPerimeter=0;entryX=-0.004;entryY=0.423;entryDx=0;entryDy=0;entryPerimeter=0;" parent="1" source="PD81UUhHNW6ZAo99IDhD-63" target="PD81UUhHNW6ZAo99IDhD-49" edge="1">
          <mxGeometry width="160" relative="1" as="geometry">
            <mxPoint x="49" y="-693" as="sourcePoint" />
            <mxPoint x="175" y="-313" as="targetPoint" />
            <Array as="points">
              <mxPoint x="-108" y="-616" />
            </Array>
          </mxGeometry>
        </mxCell>
        <mxCell id="S4Hd87Xg5I5Yjy9WUyBA-40" value="" style="endArrow=open;endFill=1;endSize=12;html=1;rounded=0;entryX=-0.01;entryY=0.974;entryDx=0;entryDy=0;entryPerimeter=0;" parent="1" target="PD81UUhHNW6ZAo99IDhD-40" edge="1">
          <mxGeometry width="160" relative="1" as="geometry">
            <mxPoint x="56" y="-854" as="sourcePoint" />
            <mxPoint x="216" y="-854" as="targetPoint" />
          </mxGeometry>
        </mxCell>
        <mxCell id="S4Hd87Xg5I5Yjy9WUyBA-44" value="1" style="endArrow=open;html=1;endSize=12;startArrow=diamondThin;startSize=14;startFill=1;edgeStyle=orthogonalEdgeStyle;align=left;verticalAlign=bottom;rounded=0;exitX=0.5;exitY=0;exitDx=0;exitDy=0;entryX=0.644;entryY=0.986;entryDx=0;entryDy=0;entryPerimeter=0;" parent="1" source="PD81UUhHNW6ZAo99IDhD-56" edge="1">
          <mxGeometry x="-1" y="3" relative="1" as="geometry">
            <mxPoint x="564.8240000000001" y="-535.002" as="sourcePoint" />
            <mxPoint x="336.04" y="-741.9960000000001" as="targetPoint" />
            <Array as="points">
              <mxPoint x="641" y="-611" />
              <mxPoint x="336" y="-611" />
            </Array>
          </mxGeometry>
        </mxCell>
        <mxCell id="S4Hd87Xg5I5Yjy9WUyBA-45" value="&amp;lt;&amp;lt;Enum&amp;gt;&amp;gt; TipCombustibil&amp;nbsp;&amp;nbsp;" style="swimlane;fontStyle=1;align=center;verticalAlign=top;childLayout=stackLayout;horizontal=1;startSize=26;horizontalStack=0;resizeParent=1;resizeParentMax=0;resizeLast=0;collapsible=1;marginBottom=0;whiteSpace=wrap;html=1;fillColor=#fa6800;strokeColor=#C73500;fontColor=#000000;" parent="1" vertex="1">
          <mxGeometry x="557" y="-1408" width="183" height="69" as="geometry" />
        </mxCell>
        <mxCell id="S4Hd87Xg5I5Yjy9WUyBA-46" value="PETROL&lt;div&gt;DIESEL&lt;/div&gt;" style="text;strokeColor=none;fillColor=none;align=left;verticalAlign=top;spacingLeft=4;spacingRight=4;overflow=hidden;rotatable=0;points=[[0,0.5],[1,0.5]];portConstraint=eastwest;whiteSpace=wrap;html=1;" parent="S4Hd87Xg5I5Yjy9WUyBA-45" vertex="1">
          <mxGeometry y="26" width="183" height="43" as="geometry" />
        </mxCell>
        <mxCell id="S4Hd87Xg5I5Yjy9WUyBA-47" value="1" style="endArrow=open;html=1;endSize=12;startArrow=diamondThin;startSize=14;startFill=1;edgeStyle=orthogonalEdgeStyle;align=left;verticalAlign=bottom;rounded=0;entryX=1.005;entryY=0.464;entryDx=0;entryDy=0;entryPerimeter=0;exitX=-0.003;exitY=0.561;exitDx=0;exitDy=0;exitPerimeter=0;" parent="1" source="S4Hd87Xg5I5Yjy9WUyBA-2" edge="1">
          <mxGeometry x="-1" y="3" relative="1" as="geometry">
            <mxPoint x="810" y="-1391" as="sourcePoint" />
            <mxPoint x="740.005" y="-1370.478" as="targetPoint" />
            <Array as="points" />
          </mxGeometry>
        </mxCell>
      </root>
    </mxGraphModel>
  </diagram>
</mxfile>
